<?xml version="1.0" encoding="UTF-8"?>
<svg width="24px" height="24px" viewBox="0 0 24 24" version="1.1" xmlns="http://www.w3.org/2000/svg" xmlns:xlink="http://www.w3.org/1999/xlink">
    <title>Bell</title>
    <g id="Flow---Profile" stroke="none" stroke-width="1" fill="none" fill-rule="evenodd">
        <g id="Artboard" transform="translate(-63.000000, -25.000000)">
            <g id="Bell" transform="translate(63.000000, 25.000000)">
                <rect id="frame" x="0" y="0" width="24" height="24"></rect>
                <g id="Notifications" transform="translate(3.000000, 1.000000)" fill="#222831">
                    <path d="M13.5,15.75 L4.5,15.75 L4.5,9 C4.5,6.00075 6.75,4.5 8.998875,4.5 L9.001125,4.5 C11.25,4.5 13.5,6.00075 13.5,9 L13.5,15.75 Z M10.125,19.125 C10.125,19.746 9.621,20.25 9,20.25 C8.379,20.25 7.875,19.746 7.875,19.125 L7.875,18 L10.125,18 L10.125,19.125 Z M16.875,15.75 C16.254,15.75 15.75,15.246 15.75,14.625 L15.75,9 C15.75,5.002875 13.086,2.784375 10.125,2.338875 L10.125,1.125 C10.125,0.504 9.621,0 9,0 C8.379,0 7.875,0.504 7.875,1.125 L7.875,2.338875 C4.914,2.784375 2.25,5.002875 2.25,9 L2.25,14.625 C2.25,15.246 1.746,15.75 1.125,15.75 C0.504,15.75 0,16.254 0,16.875 C0,17.496 0.504,18 1.125,18 L5.625,18 L5.625,19.125 C5.625,20.989125 7.135875,22.5 9,22.5 C10.864125,22.5 12.375,20.989125 12.375,19.125 L12.375,18 L16.875,18 C17.496,18 18,17.496 18,16.875 C18,16.254 17.496,15.75 16.875,15.75 L16.875,15.75 Z" id="notification_bell-[#1397]"></path>
                </g>
            </g>
        </g>
    </g>
</svg>