<?xml version="1.0" encoding="UTF-8"?>
<svg width="20px" height="20px" viewBox="0 0 20 20" version="1.1" xmlns="http://www.w3.org/2000/svg" xmlns:xlink="http://www.w3.org/1999/xlink">
    <title>35F9AFBD-72B9-4E01-BCAF-63900C440FAF</title>
    <g id="Flow---Profile" stroke="none" stroke-width="1" fill="none" fill-rule="evenodd">
        <g id="profile" transform="translate(-32.000000, -522.000000)">
            <g id="Group-10" transform="translate(16.000000, 434.000000)">
                <g id="Group-3" transform="translate(12.000000, 10.000000)">
                    <g id="Bonus-Copy" transform="translate(4.000000, 78.000000)">
                        <rect id="frame" x="0" y="0" width="20" height="20"></rect>
                        <path d="M7.9,10 L12.1,10 L12.1,8.6 L7.9,8.6 L7.9,10 Z M7.9,7.2 L12.1,7.2 L12.1,5.8 L7.9,5.8 L7.9,7.2 Z M14.2,5.8 L14.2,4.4 C14.9721,4.4 15.6,5.0286 15.6,5.8 L14.2,5.8 Z M12.8,14.2 C12.8,14.9721 12.1721,15.6 11.4,15.6 L11.4,12.8 L7.2,12.8 L7.2,5.8 C7.2,5.0286 7.8279,4.4 8.6,4.4 L12.8,4.4 L12.8,14.2 Z M10,15.6 L5.8,15.6 C5.0279,15.6 4.4,14.9721 4.4,14.2 L10,14.2 L10,15.6 Z M14.2,3 L8.6,3 C7.0537,3 5.8,4.2537 5.8,5.8 L5.8,12.8 L3,12.8 L3,14.2 C3,15.747 4.2537,17 5.8,17 L11.4,17 C12.9463,17 14.2,15.747 14.2,14.2 L14.2,7.2 L17,7.2 L17,5.8 C17,4.2537 15.7463,3 14.2,3 L14.2,3 Z" id="script-[#1601]" fill="#000000"></path>
                    </g>
                </g>
            </g>
        </g>
    </g>
</svg>