<svg xmlns="http://www.w3.org/2000/svg" width="26" height="32" viewBox="0 0 26 32">
    <g fill="none">
        <path fill="#E4624C" d="M5.613 15.507c-.233 0-.47-.032-.704-.1-.448-.127-.707-.596-.58-1.045.127-.45.594-.71 1.041-.583.473.135.967-.141 1.101-.616.134-.474-.14-.97-.613-1.105-1.657-.468-3.156-1.625-4.216-3.256C.575 7.16.012 5.182.012 3.08v-.007C.013 2.248.335 1.475.917.895 1.497.318 2.264 0 3.079 0h.011c1.692.006 3.064 1.394 3.058 3.093-.002.466-.379.843-.843.843h-.003c-.465-.001-.841-.381-.84-.849.003-.766-.615-1.391-1.378-1.394-.37-.002-.717.142-.979.403-.262.262-.407.61-.408.981v.004c0 1.746.481 3.45 1.356 4.795.838 1.288 1.996 2.195 3.263 2.552 1.37.392 2.165 1.826 1.776 3.199-.322 1.136-1.357 1.88-2.479 1.88z" transform="translate(.8 .61)"/>
        <path fill="#CB3B28" d="M18.881 15.507c-1.122 0-2.157-.744-2.479-1.88-.388-1.373.407-2.807 1.773-3.198 1.27-.358 2.429-1.265 3.266-2.553.875-1.346 1.356-3.049 1.356-4.795v-.007c0-.368-.146-.716-.408-.978-.26-.26-.607-.403-.974-.403h-.005c-.763.003-1.38.628-1.378 1.394.002.468-.374.848-.84.85h-.003c-.464 0-.84-.378-.842-.844C18.34 1.393 19.712.006 21.404 0h.011c.815 0 1.583.318 2.162.895.581.58.903 1.353.906 2.176v.01c0 2.101-.564 4.08-1.63 5.72-1.061 1.632-2.56 2.789-4.22 3.257-.47.135-.744.63-.61 1.105.135.475.629.751 1.101.616.447-.128.914.133 1.041.583.128.45-.132.918-.58 1.046-.234.067-.471.099-.704.099z" transform="translate(.8 .61)"/>
        <g>
            <path fill="#FF9377" d="M10.717 23.886H2.205c-.466 0-.843-.379-.843-.846 0-1.854.992-3.544 2.57-4.448v-3.54c-.364-.156-.713-.345-1.042-.565C1.087 13.283.01 11.267.01 9.092V.847C.011.379.39 0 .854 0h11.214c.465 0 .842.379.842.847v8.245c0 2.175-1.076 4.191-2.878 5.395-.33.22-.679.41-1.043.565v3.54c1.578.904 2.57 2.594 2.57 4.448 0 .467-.377.846-.842.846z" transform="translate(.8 .61) translate(5.787)"/>
            <path fill="#E4624C" d="M10.032 14.487c1.802-1.204 2.878-3.22 2.878-5.395V.847c0-.468-.377-.847-.843-.847H6.461v23.886h4.256c.465 0 .842-.379.842-.846 0-1.854-.992-3.544-2.57-4.448v-3.54c.364-.156.713-.345 1.043-.565z" transform="translate(.8 .61) translate(5.787)"/>
            <g>
                <path fill="#E4624C" d="M5.337 1.716H.843C.377 1.716 0 1.337 0 .87 0 .402.377.023.843.023h4.494c.465 0 .843.38.843.847 0 .467-.378.846-.843.846z" transform="translate(.8 .61) translate(5.787) translate(3.37 15.88)"/>
                <path fill="#CB3B28" d="M5.337.023H3.09v1.693h2.247c.465 0 .843-.379.843-.846 0-.468-.378-.847-.843-.847z" transform="translate(.8 .61) translate(5.787) translate(3.37 15.88)"/>
            </g>
        </g>
        <g>
            <g>
                <path fill="#BA602B" d="M16.552 6.782H.863c-.465 0-.842-.38-.842-.847V.886C.02.42.398.04.863.04h15.69c.465 0 .842.379.842.846v5.05c0 .467-.377.846-.843.846z" transform="translate(.8 .61) translate(1.458 21.87) translate(1.124)"/>
                <path fill="#964C22" d="M16.552.04H8.708v6.742h7.844c.466 0 .843-.38.843-.847V.886c0-.467-.377-.846-.843-.846z" transform="translate(.8 .61) translate(1.458 21.87) translate(1.124)"/>
            </g>
            <g>
                <path fill="#964C22" d="M18.14 2.204H.814c-.45 0-.814-.327-.814-.73C0 1.073.364.747.814.747H18.14c.45 0 .814.326.814.729 0 .402-.365.729-.814.729z" transform="translate(.8 .61) translate(1.458 21.87) translate(0 5.832)"/>
                <path fill="#6F3716" d="M19.535.746h-9.329v1.458h9.33c.483 0 .876-.327.876-.73 0-.402-.393-.728-.877-.728z" transform="translate(.8 .61) translate(1.458 21.87) translate(0 5.832)"/>
            </g>
        </g>
        <g>
            <path fill="#E4624C" d="M4.55 2.482C4.55 1.143 3.53.053 2.277.053 1.192.053.253.877.045 2.013c-.093.506.216.998.69 1.097.474.1.935-.23 1.028-.737.048-.26.264-.45.513-.45.289 0 .524.251.524.56 0 .307-.235.558-.524.558-.483 0-.875.418-.875.935 0 .516.392.935.875.935.289 0 .524.25.524.559 0 .308-.235.558-.524.558-.26 0-.482-.206-.518-.48-.003-.025-.005-.052-.005-.078 0-.517-.392-.935-.875-.935-.484 0-.876.418-.876.935 0 .112.007.226.022.337C.18 7 1.148 7.898 2.276 7.898c1.254 0 2.275-1.09 2.275-2.428 0-.563-.181-1.082-.483-1.494.302-.412.483-.93.483-1.494z" transform="translate(.8 .61) translate(10.498 3.5)"/>
            <path fill="#CB3B28" d="M4.55 2.482C4.55 1.143 3.53.053 2.277.053v1.87c.289 0 .524.251.524.56 0 .307-.235.558-.524.558v1.87c.289 0 .524.25.524.559 0 .308-.235.558-.524.558v1.87c1.254 0 2.275-1.09 2.275-2.428 0-.563-.181-1.082-.483-1.494.302-.412.483-.93.483-1.494z" transform="translate(.8 .61) translate(10.498 3.5)"/>
        </g>
    </g>
</svg>
