<?xml version="1.0" encoding="UTF-8"?>
<svg width="20px" height="20px" viewBox="0 0 20 20" version="1.1" xmlns="http://www.w3.org/2000/svg" xmlns:xlink="http://www.w3.org/1999/xlink">
    <title>888F3FF9-6A06-4CB4-B7D2-B1F41F3B18B0</title>
    <g id="Flow---Profile" stroke="none" stroke-width="1" fill="none" fill-rule="evenodd">
        <g id="profile" transform="translate(-32.000000, -476.000000)">
            <g id="Group-10" transform="translate(16.000000, 434.000000)">
                <g id="Group-3" transform="translate(12.000000, 10.000000)">
                    <g id="GiftCards-Copy" transform="translate(4.000000, 32.000000)">
                        <rect id="frame" x="0" y="0" width="20" height="20"></rect>
                        <path d="M13.2941176,7.13046335 C13.2941176,6.66294798 12.9427451,6.70698928 12.5098039,6.70698928 L4.66666667,6.70698928 C4.23372549,6.70698928 3.88235294,6.66294798 3.88235294,7.13046335 L3.88235294,15.1764706 L13.2941176,15.1764706 L13.2941176,7.13046335 Z M15.1764706,6.47058824 L15.1764706,16.3529412 C15.1764706,17.2621176 14.4394118,18 13.5294118,18 L3.64705882,18 C2.73788235,18 2,17.2621176 2,16.3529412 L2,6.47058824 C2,5.56058824 2.73788235,4.82352941 3.64705882,4.82352941 L13.5294118,4.82352941 C14.4394118,4.82352941 15.1764706,5.56058824 15.1764706,6.47058824 L15.1764706,6.47058824 Z M18,3.62847818 L18,13.4459203 C18,13.8816546 17.6310588,14.2352941 17.1764706,14.2352941 C16.7218824,14.2352941 16.3529412,13.8816546 16.3529412,13.4459203 L16.3529412,3.97343454 C16.3529412,3.53770019 15.984,3.57874763 15.5294118,3.57874763 L5.64705882,3.57874763 C5.19247059,3.57874763 4.82352941,3.163537 4.82352941,2.72780266 C4.82352941,2.29206831 5.19247059,2 5.64705882,2 L16.3529412,2 C17.3568235,2 18,2.64176091 18,3.62847818 L18,3.62847818 Z" id="images_round-[#965]" fill="#000000"></path>
                    </g>
                </g>
            </g>
        </g>
    </g>
</svg>