<svg xmlns="http://www.w3.org/2000/svg" width="18" height="17" viewBox="0 0 18 17">
    <g fill="none">
        <path fill="#F7434C" d="M16.327 7.333H1.49c-.156 0-.282.126-.282.281v8.73c0 .155.126.28.282.28h14.836c.155 0 .281-.125.281-.28v-8.73c0-.155-.126-.281-.281-.281z"/>
        <path fill="#DB2E37" d="M16.327 7.333H1.49c-.156 0-.282.126-.282.281V8.74h15.4V7.614c0-.155-.127-.281-.282-.281z"/>
        <path fill="#FFDB57" d="M10.346 7.333H7.472c-.156 0-.282.126-.282.281v8.73c0 .155.126.28.282.28h2.874c.155 0 .281-.125.281-.28v-8.73c0-.155-.126-.281-.281-.281z"/>
        <path fill="#F5BA3D" d="M10.346 7.333H7.472c-.156 0-.282.126-.282.281v1.12h3.437v-1.12c0-.155-.126-.281-.281-.281z"/>
        <path fill="#FFDB57" d="M15.779 2.136c-.276-.719-.711-1.421-1.165-1.879-.166-.167-.39-.252-.645-.247-.844.02-2.22 1.08-4.09 3.15-.047.053-.073.12-.073.19v1.488c0 .155.126.28.281.28h4.328c.964 0 1.362-.468 1.526-.862.219-.524.161-1.277-.162-2.12z"/>
        <path fill="#EF9325" d="M15.94 2.626c-.008-.029-.02-.056-.037-.081-.425-.642-1.343-.402-2.038-.087-2.02.914-2.854 2.173-2.888 2.226-.056.087-.06.197-.012.288.05.09.145.147.248.147h3.202c.613 0 1.068-.188 1.352-.56.337-.441.397-1.11.173-1.933z"/>
        <path fill="#FFDB57" d="M7.94 3.161C6.07 1.09 4.692.03 3.847.011 3.593.004 3.37.09 3.203.256c-.453.458-.888 1.16-1.164 1.879-.323.843-.381 1.596-.162 2.12.164.394.562.863 1.526.863H7.73c.156 0 .282-.126.282-.281V3.349c0-.07-.026-.136-.073-.188z"/>
        <path fill="#EF9325" d="M6.84 4.684c-.034-.053-.868-1.312-2.887-2.226-.696-.315-1.614-.555-2.038.087-.017.025-.03.052-.037.081-.224.823-.165 1.492.173 1.933.283.372.738.56 1.352.56h3.202c.103 0 .198-.057.247-.147.05-.09.045-.201-.011-.288z"/>
        <path fill="#F5BA3D" d="M10.087 2.79H7.73c-.155 0-.28.126-.28.281v1.767c0 .155.125.28.28.28h2.357c.156 0 .281-.125.281-.28V3.07c0-.155-.125-.28-.28-.28z"/>
        <path fill="#F7434C" d="M17.536 4.557H.281c-.155 0-.281.126-.281.281v2.776c0 .156.126.282.281.282h17.255c.156 0 .282-.126.282-.282V4.838c0-.155-.126-.281-.282-.281z"/>
        <path fill="#FFDB57" d="M6.748 4.557H11.07V7.896000000000001H6.748z"/>
    </g>
</svg>
