<svg xmlns="http://www.w3.org/2000/svg" width="16" height="20" viewBox="0 0 16 20">
    <g fill="none">
        <path fill="#FFB852" d="M3.598 9.692c-.15 0-.3-.02-.451-.062-.287-.08-.454-.373-.372-.654.082-.281.38-.444.667-.364.304.084.62-.088.706-.385.086-.297-.09-.607-.393-.691-1.062-.292-2.023-1.015-2.703-2.035C.37 4.475.007 3.239.007 1.925v-.004C.01 1.405.216.922.588.56.96.2 1.451 0 1.974 0h.007c1.085.004 1.964.871 1.96 1.933-.001.292-.243.527-.54.527h-.002c-.299 0-.54-.238-.538-.53.001-.48-.395-.87-.884-.872-.237-.001-.46.089-.627.252-.168.164-.261.381-.262.613v.002c0 1.092.308 2.156.87 2.997.536.806 1.279 1.372 2.091 1.596.878.244 1.387 1.14 1.138 1.999-.206.71-.87 1.175-1.589 1.175z"/>
        <path fill="#CA903D" d="M12.103 9.692c-.72 0-1.382-.465-1.589-1.175-.249-.858.26-1.755 1.137-1.999.814-.224 1.557-.79 2.093-1.596.561-.84.87-1.905.87-2.997v-.004c-.001-.23-.094-.447-.262-.61-.167-.163-.389-.253-.625-.253h-.003c-.489.002-.885.393-.883.871.001.293-.24.53-.538.531H12.3c-.298 0-.54-.235-.54-.527C11.757.871 12.636.003 13.72 0h.007c.522 0 1.014.199 1.385.56.373.362.58.845.581 1.36v.005c0 1.314-.361 2.55-1.045 3.576-.68 1.02-1.64 1.743-2.704 2.035-.301.084-.478.394-.392.691.087.297.403.47.706.385.287-.08.586.083.667.364.082.281-.084.574-.371.654-.15.042-.302.062-.452.062z"/>
        <g>
            <path fill="#FFB852" d="M6.87 14.929H1.413c-.298 0-.54-.237-.54-.529 0-1.159.636-2.215 1.648-2.78V9.407c-.234-.097-.457-.215-.669-.353C.697 8.302.007 7.042.007 5.683V.529C.007.237.25 0 .547 0h7.189c.298 0 .54.237.54.53v5.153c0 1.359-.69 2.619-1.845 3.371-.212.138-.435.256-.669.353v2.213c1.012.565 1.648 1.621 1.648 2.78 0 .292-.242.529-.54.529z" transform="translate(3.71)"/>
            <path fill="#CA903D" d="M6.43 9.054c1.156-.752 1.846-2.012 1.846-3.371V.529c0-.292-.242-.529-.54-.529H4.14v14.929H6.87c.298 0 .54-.237.54-.53 0-1.158-.636-2.214-1.648-2.78V9.408c.234-.097.457-.215.669-.353z" transform="translate(3.71)"/>
            <g>
                <path fill="#CA903D" d="M3.421 1.073H.541C.24 1.073 0 .836 0 .543 0 .252.242.016.54.016h2.881c.299 0 .54.236.54.529 0 .292-.241.529-.54.529z" transform="translate(3.71) translate(2.16 9.925)"/>
                <path fill="#FFB852" d="M3.421.015h-1.44v1.058h1.44c.299 0 .54-.237.54-.53 0-.292-.241-.528-.54-.528z" transform="translate(3.71) translate(2.16 9.925)"/>
            </g>
        </g>
        <g>
            <g>
                <path fill="#BA602B" d="M10.61 4.239H.553c-.298 0-.54-.237-.54-.53V.554c0-.292.242-.53.54-.53H10.61c.299 0 .54.238.54.53v3.155c0 .293-.241.53-.54.53z" transform="translate(1.62 13.77) translate(.72)"/>
                <path fill="#964C22" d="M10.61.025H5.582v4.214h5.028c.299 0 .54-.237.54-.53V.554c0-.292-.241-.53-.54-.53z" transform="translate(1.62 13.77) translate(.72)"/>
            </g>
            <g>
                <path fill="#964C22" d="M11.628 1.377H.522C.234 1.377 0 1.173 0 .922 0 .67.234.466.522.466h11.106c.288 0 .522.204.522.456 0 .251-.234.455-.522.455z" transform="translate(1.62 13.77) translate(0 3.645)"/>
                <path fill="#6F3716" d="M12.523.466h-5.98v.911h5.98c.31 0 .562-.204.562-.455 0-.252-.252-.456-.562-.456z" transform="translate(1.62 13.77) translate(0 3.645)"/>
            </g>
        </g>
    </g>
</svg>
