<svg xmlns="http://www.w3.org/2000/svg" width="17" height="20" viewBox="0 0 17 20">
    <g fill="none">
        <path fill="#FFD89D" d="M14.225 3.266H8.201v1.089h6.024c.6 0 1.089.488 1.089 1.088 0 .6-.489 1.089-1.089 1.089H8.201l-1.088.544 1.088.545h6.024c1.2 0 2.178-.977 2.178-2.178 0-1.2-.977-2.177-2.178-2.177z"/>
        <path fill="#FFEBCE" d="M2.177 6.532c-.6 0-1.088-.488-1.088-1.089 0-.6.488-1.088 1.088-1.088h6.024V3.266H2.177C.977 3.266 0 4.243 0 5.443c0 1.2.977 2.178 2.177 2.178h6.024V6.532H2.177z"/>
        <path fill="#62DAEF" d="M14.225 0L12.048 0 10.415 2.722 12.048 5.443 14.225 5.443z"/>
        <path fill="#96E7F4" d="M2.177 0L4.355 0 5.988 2.722 4.355 5.443 2.177 5.443z"/>
        <path fill="#FF415D" d="M8.201 0L6.568 2.722 8.201 5.443 12.048 5.443 12.048 0z"/>
        <path fill="#FFB03B" d="M8.201 6.532l-4.668 6.024L8.2 18.58c3.322 0 6.024-2.702 6.024-6.024s-2.702-6.024-6.024-6.024z"/>
        <g fill="#FFC46C">
            <path d="M0 6.024c0 3.322 2.702 6.024 6.024 6.024V0C2.702 0 0 2.702 0 6.024z" transform="translate(2.177 6.532)"/>
            <path d="M6.024 1.633L2.62 6.023l3.403 4.392c2.421 0 4.39-1.97 4.39-4.391 0-2.421-1.969-4.391-4.39-4.391z" transform="translate(2.177 6.532)"/>
        </g>
        <g fill="#FFD89D">
            <path d="M0 4.39c0 2.422 1.97 4.392 4.39 4.392V0C1.97 0 0 1.97 0 4.39z" transform="translate(3.81 8.165)"/>
            <path d="M4.39 1.089L1.833 4.39 4.39 7.693c1.82 0 3.302-1.481 3.302-3.302S6.212 1.089 4.391 1.089z" transform="translate(3.81 8.165)"/>
        </g>
        <path fill="#FFEBCE" d="M4.899 12.556c0 1.82 1.481 3.302 3.302 3.302V9.254c-1.82 0-3.302 1.481-3.302 3.302z"/>
        <path fill="#FF7472" d="M4.355 0H8.202V5.443H4.355z"/>
    </g>
</svg>
