<svg xmlns="http://www.w3.org/2000/svg" width="20" height="20" viewBox="0 0 20 20">
    <g fill="none" fill-rule="evenodd">
        <path d="M0 0H20V20H0z"/>
        <g transform="translate(2 3)">
            <path fill="#222831" d="M11.582 13.386h-7.15c-.39 0-.724-.285-.788-.675l-.955-5.78h10.766l-1.087 5.798c-.072.381-.402.657-.786.657zm2.018-8.07L10.778.403c-.22-.382-.704-.514-1.085-.295-.385.221-.517.716-.295 1.102l2.354 4.106H4.247l2.359-4.103c.22-.384.09-.875-.288-1.1L6.31.11C5.93-.115 5.438.016 5.218.402L2.4 5.316H.8c-.442 0-.8.362-.8.807 0 .446.358.807.8.807h.266l1.11 6.722c.13.777.797 1.348 1.58 1.348h8.488c.782 0 1.45-.57 1.578-1.348l1.11-6.722h.268c.442 0 .8-.361.8-.807 0-.445-.358-.807-.8-.807h-1.6z"/>
            <circle cx="12.5" cy="12.5" r="3.5" fill="#F94510" stroke="#F94510"/>
        </g>
    </g>
</svg>
