<svg xmlns="http://www.w3.org/2000/svg" width="38" height="38" viewBox="0 0 38 38">
    <g fill="none" fill-rule="evenodd">
        <path d="M0 0H38V38H0z"/>
        <path fill="#393E46" d="M29.307 11.034H8.38V7.759h22.307v3.275h-1.381zm-1.589 6.69H11.282l-.76-5.297h17.956l-.76 5.296zM26.061 29.29H12.939l-1.45-10.173H27.58L26.06 29.29zm-.967 7.247H13.906l-.829-5.784h12.777l-.76 5.784zM11.904 5.25l14.571-2.717v3.832H11.903V5.25zm18.715 1.115h-2.832V1.697c0-.418-.276-.697-.69-.697h-.138L11.075 3.996c-.346.07-.553.349-.553.697v1.672h-2.14C7.621 6.365 7 6.992 7 7.76v3.345c0 .766.622 1.393 1.381 1.393h.76l3.522 24.876c.069.348.345.627.69.627h12.293c.346 0 .622-.279.691-.627l3.522-24.946h.76c.76 0 1.381-.627 1.381-1.393V7.759c0-.767-.622-1.394-1.381-1.394z"/>
    </g>
</svg>
