<svg xmlns="http://www.w3.org/2000/svg" width="20" height="20" viewBox="0 0 20 20">
    <g fill="none" fill-rule="evenodd">
        <path d="M0 0H20V20H0z"/>
        <path fill="#FF8400" d="M14.798 9.963l.002-.013v.025l-.002-.012zM9.999 5.101H10zM16.4 15.6c0 .442-.358.8-.8.8H4.4c-.442 0-.8-.358-.8-.8V4.4c0-.442.358-.8.8-.8h11.2c.442 0 .8.358.8.8v11.2zM3.6 2C2.717 2 2 2.717 2 3.6v12.8c0 .884.717 1.6 1.6 1.6h12.8c.884 0 1.6-.716 1.6-1.6V3.6c0-.883-.716-1.6-1.6-1.6H3.6z"/>
        <path fill="#FF8400" d="M13.755 7.243c.327.323.327.848 0 1.172l-3.254 3.22c-.491.486-1.286.486-1.778 0l-1.478-1.463c-.327-.323-.327-.848 0-1.172.327-.323.857-.323 1.183 0l.59.585c.328.324.86.324 1.188 0l2.365-2.342c.327-.324.857-.324 1.184 0z"/>
    </g>
</svg>
