<svg xmlns="http://www.w3.org/2000/svg" width="38" height="38" viewBox="0 0 38 38">
    <g fill="none" fill-rule="evenodd">
        <path d="M0 0H38V38H0z"/>
        <path fill="#393E46" d="M8.326 7.635V5.363H29.74v2.272H8.326zm18.564 6.54H11.11l-.729-5.177H27.62l-.73 5.177zm-1.592 11.31H12.702l-1.393-9.947h15.448l-1.459 9.946zm-.928 7.084H13.63l-.796-5.654H25.1l-.729 5.654zM8.326 4C7.596 4 7 4.613 7 5.363v2.34c0 .75.597 1.363 1.326 1.363h.73l3.38 24.32c.067.341.332.614.663.614h11.802c.331 0 .596-.273.663-.613l3.38-24.39h.73c.73 0 1.326-.612 1.326-1.362V5.363C31 4.613 30.403 4 29.674 4H8.326z"/>
    </g>
</svg>
