<svg xmlns="http://www.w3.org/2000/svg" width="38" height="38" viewBox="0 0 38 38">
    <g fill="none" fill-rule="evenodd">
        <path d="M0 0H38V38H0z"/>
        <path fill="#393E46" stroke="#2D140D" stroke-width=".3" d="M10.117 9.047V7.142h18.044v1.905H10.117zm15.642 5.48H12.463l-.614-4.338h14.524l-.614 4.339zm-1.341 9.479H13.804l-1.173-8.336h13.016l-1.23 8.336zm-.782 5.938h-9.05l-.67-4.74H24.25l-.614 4.74zM10.117 6C9.503 6 9 6.514 9 7.142v1.962c0 .628.503 1.142 1.117 1.142h.615l2.849 20.383c.056.285.279.514.558.514h9.944c.28 0 .503-.229.558-.514l2.85-20.44h.614c.614 0 1.117-.514 1.117-1.142V7.142c0-.628-.503-1.142-1.117-1.142H10.117z"/>
    </g>
</svg>
