<svg xmlns="http://www.w3.org/2000/svg" width="20" height="20" viewBox="0 0 20 20">
    <g fill="none" fill-rule="evenodd">
        <path d="M0 0H20V20H0z"/>
        <path fill="#000" d="M8.2 10c0-.92.806-1.667 1.8-1.667.995 0 1.8.746 1.8 1.667 0 .92-.806 1.667-1.8 1.667-.995 0-1.8-.746-1.8-1.667m8.1 3.333H3.7c-.497 0-.9-.373-.9-.833v-5c0-.46.403-.833.9-.833h12.6c.497 0 .9.373.9.833v5c0 .46-.403.833-.9.833M1 6.667v6.666C1 14.254 1.806 15 2.8 15h14.4c.995 0 1.8-.746 1.8-1.667V6.667C19 5.746 18.195 5 17.2 5H2.8C1.806 5 1 5.746 1 6.667"/>
    </g>
</svg>
