<svg xmlns="http://www.w3.org/2000/svg" width="20" height="20" viewBox="0 0 20 20">
    <g fill="none" fill-rule="evenodd">
        <path d="M0 0H20V20H0z"/>
        <path fill="#393E46" d="M7.338 6.58l-.003.003c-.322.3-.34.805-.039 1.127l.766.816c.239.256.057.674-.292.674H2.8c-.442 0-.8.358-.8.8 0 .442.358.8.8.8h4.958c.352 0 .532.422.288.676l-.742.78c-.306.318-.291.826.031 1.127.32.3.821.284 1.122-.034l2.151-2.279c.584-.619.582-1.587-.006-2.202L8.454 6.615c-.3-.314-.797-.33-1.116-.034M16.578 2h-5.156C10.64 2 10 2.544 10 3.689v.717c0 .438.355.794.794.794h.01c.44 0 .796-.356.796-.794v-.012c0-.438.355-.794.794-.794h3.21c.44 0 .796.356.796.794v11.212c0 .438-.356.794-.795.794h-3.21c-.44 0-.795-.356-.795-.794v-.012c0-.438-.356-.794-.795-.794h-.01c-.44 0-.795.356-.795.794v.895c0 .945.678 1.511 1.422 1.511h5.156c.785 0 1.422-.637 1.422-1.422V3.422C18 2.637 17.363 2 16.578 2"/>
    </g>
</svg>
