<svg xmlns="http://www.w3.org/2000/svg" width="19" height="22" viewBox="0 0 19 22">
    <g fill="none">
        <path fill="#FFD89D" d="M15.806 3.629H9.113v1.21h6.693c.667 0 1.21.542 1.21 1.21 0 .666-.543 1.209-1.21 1.209H9.113l-1.21.605 1.21.604h6.693c1.334 0 2.419-1.085 2.419-2.419s-1.085-2.42-2.42-2.42z"/>
        <path fill="#FFEBCE" d="M2.42 7.258c-.668 0-1.21-.543-1.21-1.21 0-.667.542-1.21 1.21-1.21h6.693v-1.21H2.419C1.085 3.629 0 4.715 0 6.049c0 1.334 1.085 2.42 2.42 2.42h6.693v-1.21H2.419z"/>
        <path fill="#62DAEF" d="M15.806 0L13.387 0 11.572 3.024 13.387 6.048 15.806 6.048z"/>
        <path fill="#96E7F4" d="M2.419 0L4.838 0 6.653 3.024 4.838 6.048 2.419 6.048z"/>
        <path fill="#FF415D" d="M9.113 0L7.298 3.024 9.113 6.048 13.387 6.048 13.387 0z"/>
        <path fill="#707070" d="M9.113 7.258L3.925 13.95l5.188 6.693c3.69 0 6.693-3.002 6.693-6.693 0-3.69-3.003-6.693-6.693-6.693z"/>
        <g>
            <path fill="#707070" d="M0 6.693c0 3.69 3.003 6.694 6.693 6.694V0C3.003 0 0 3.003 0 6.693z" transform="translate(2.42 7.258)"/>
            <path fill="#76736C" d="M6.693 1.814l-3.78 4.88 3.78 4.878c2.69 0 4.88-2.189 4.88-4.879 0-2.69-2.19-4.879-4.88-4.879z" transform="translate(2.42 7.258)"/>
        </g>
        <path fill="#848078" d="M4.234 13.951c0 2.69 2.188 4.879 4.879 4.879V9.072c-2.69 0-4.88 2.189-4.88 4.879z"/>
        <path fill="#FF7472" d="M4.838 0H9.112V6.048H4.838z"/>
    </g>
</svg>
