<svg xmlns="http://www.w3.org/2000/svg" width="20" height="20" viewBox="0 0 20 20">
    <g fill="none" fill-rule="evenodd">
        <path d="M0 0H20V20H0z"/>
        <path fill="#00ADB5" d="M8.012 7.736c-.345 0-.626-.277-.626-.619 0-.341.28-.618.626-.618s.626.277.626.618c0 .342-.28.619-.626.619m8.621 2.653l-2.073-2.05c-3.523-3.482-2.699-2.648-4.065-4.088-.118-.116-.277-.251-.443-.251h-3.8C5.56 4 5 4.694 5 5.377v3.756c0 .164.066.321.183.438l6.14 6.067c.488.483 1.28.483 1.77 0l3.54-3.5c.49-.483.49-1.266 0-1.75"/>
    </g>
</svg>
