<svg xmlns="http://www.w3.org/2000/svg" width="20" height="20" viewBox="0 0 20 20">
    <g fill="none" fill-rule="evenodd">
        <path d="M0 0H20V20H0z"/>
        <path fill="#00ADB5" d="M10.773 14.306L5.361 8.884c-.059-.059-.092-.138-.092-.221V5.878c0-.346.28-.626.625-.626h2.781c.083 0 .162.032.221.091l5.413 5.422c.243.244.243.64 0 .885l-2.652 2.656c-.244.244-.64.244-.884 0zm2.791-6.057L9.505 4.183C9.388 4.066 9.23 4 9.063 4H5.27c-.69 0-1.25.56-1.25 1.252 0 3.793-.107 3.95.184 4.243l6.129 6.138c.488.49 1.279.49 1.767 0l3.535-3.54c.488-.49.488-1.282 0-1.77l-2.07-2.074z"/>
    </g>
</svg>
