<svg xmlns="http://www.w3.org/2000/svg" width="20" height="20" viewBox="0 0 20 20">
    <g fill="none" fill-rule="evenodd">
        <path d="M0 0H20V20H0z"/>
        <path fill="#222831" d="M13.582 16.386h-7.15c-.39 0-.724-.285-.788-.675l-.955-5.78h10.766l-1.087 5.798c-.072.381-.402.657-.786.657zm2.018-8.07l-2.822-4.913c-.22-.382-.704-.514-1.085-.295-.385.221-.517.716-.295 1.102l2.354 4.106H6.247l2.359-4.103c.22-.384.09-.875-.288-1.1L8.31 3.11c-.381-.225-.872-.094-1.092.292L4.4 8.316H2.8c-.442 0-.8.362-.8.807 0 .446.358.807.8.807h.266l1.11 6.722c.13.777.797 1.348 1.58 1.348h8.488c.782 0 1.45-.57 1.578-1.348l1.11-6.722h.268c.442 0 .8-.361.8-.807 0-.445-.358-.807-.8-.807h-1.6z"/>
    </g>
</svg>
