<svg xmlns="http://www.w3.org/2000/svg" width="20" height="20" viewBox="0 0 20 20">
    <g fill="none" fill-rule="evenodd">
        <path d="M0 0H20V20H0z"/>
        <path fill="#222831" d="M16.4 15.2c0 .442-.44 1.2-.882 1.2H10V6.8h5.518c.442 0 .882-.042.882.4v8zm-8-.123l-1.6-1.969V4.057L8.4 5.93v9.146zM5.2 13.2h-.882c-.442 0-.718-.758-.718-1.2V4c0-.442.276-.4.718-.4H5.2v9.6zm11.118-8h-6.13c-.469 0-.914-.405-1.218-.76L7.198 2.461C6.894 2.106 6.448 2 5.98 2H3.518C2.634 2 2 2.316 2 3.2v9.6c0 .884.634 2 1.518 2h1.438c.482 0 .938.017 1.242.391l1.64 2.119c.304.373.76.69 1.241.69h7.24C17.201 18 18 16.884 18 16V6.4c0-.884-.798-1.2-1.682-1.2z"/>
    </g>
</svg>
