<svg xmlns="http://www.w3.org/2000/svg" width="20" height="20" viewBox="0 0 20 20">
    <g fill="none" fill-rule="evenodd">
        <path d="M0 0H20V20H0z"/>
        <path fill="#222831" d="M16.258 4.304c-.05-.4-.392-.704-.796-.704H13.48c.19 1.291.355 3.054.077 4.126 1.287.105 2.37-.155 2.745-.367.154-.466.126-1.687-.043-3.055zM14.8 9.324c-.906.068-1.925.013-2.765-.269-.644.193-1.428.297-2.205.297-.757 0-1.499-.1-2.09-.298-.683.206-1.562.326-2.54.29V15.6c0 .442.358.8.8.8h3.2V14c0-.442.358-.8.8-.8.442 0 .8.358.8.8v2.4H14c.442 0 .8-.358.8-.8V9.323zM6.431 7.695c-.247-1.091-.104-2.824.063-4.096H4.516c-.411 0-.753.314-.797.722-.153 1.407-.165 2.656-.006 3.122.611.342 1.98.344 2.718.252zm1.578-.252c.802.448 3.186.376 4-.085.18-.545.11-2.121-.143-3.759H8.103c-.23 1.684-.28 3.3-.094 3.844zm9.484 1.01c-.242.24-.63.433-1.093.58V16.4c0 .883-.717 1.6-1.6 1.6H5.2c-.884 0-1.6-.717-1.6-1.6V9.105c-.504-.148-.916-.363-1.15-.651-.678-.84-.448-3.448-.222-5.08C2.338 2.584 3.015 2 3.812 2h12.342c.79 0 1.46.571 1.582 1.351.257 1.654.528 4.331-.243 5.103zM7.6 10c-.442 0-.8.358-.8.8v1.6c0 .442.358.8.8.8.442 0 .8-.358.8-.8v-1.6c0-.442-.358-.8-.8-.8zm5.6.8v1.6c0 .442-.358.8-.8.8-.442 0-.8-.358-.8-.8v-1.6c0-.442.358-.8.8-.8.442 0 .8.358.8.8z"/>
    </g>
</svg>
